PathFileType	4	(X/Y/Z)	C:\Users\mayra\OneDrive - Universitat Pompeu Fabra\PhD_Mayra\OpenSim\aurel\ID_04_Walking_14.trc
DataRate	CameraRate	NumFrames	NumMarkers	Units	OrigDataRate	OrigDataStartFrame	OrigNumFrames
250.00	250.00	9	18	mm	250.00	570	1846
Frame#	Time	r.should			l.should			c7			r.asis			l.asis			sacrum			r.bar1			l.bar1			r.knee1			l.knee1			r.bar2			r.mall			l.bar2			l.mall			r.met			r.heel			l.heel			l.met			
		X1	Y1	Z1	X2	Y2	Z2	X3	Y3	Z3	X4	Y4	Z4	X5	Y5	Z5	X6	Y6	Z6	X7	Y7	Z7	X8	Y8	Z8	X9	Y9	Z9	X10	Y10	Z10	X11	Y11	Z11	X12	Y12	Z12	X13	Y13	Z13	X14	Y14	Z14	X15	Y15	Z15	X16	Y16	Z16	X17	Y17	Z17	X18	Y18	Z18	

1520	6.080000	1640.451193	1226.333380	436.800718	1636.093378	1242.249489	159.122318	1552.954793	1298.094153	293.260545	1732.235432	851.666152	415.788472	1746.169806	849.013388	182.621092	1491.418123	896.076858	268.588215	1614.052773	780.431569	495.084286	1670.082450	746.225476	101.053536	1581.339598	438.347936	418.988109	1768.484712	468.607336	177.266285	1538.153410	386.769444	415.767163	1337.879658	125.109836	369.626403	1772.739410	393.735707	180.116788	1818.098664	71.024060	218.368307	1446.338415	44.188347	360.020012	1297.746420	142.415598	323.182046	1763.643980	58.924846	254.229933	1950.442314	58.085077	244.295925	
1521	6.084000	1644.907475	1227.026939	436.186433	1640.614510	1242.796659	158.553600	1557.373047	1298.717260	292.630881	1736.752033	852.158308	415.014952	1750.665188	849.921942	182.495147	1495.639086	896.328330	268.311262	1619.080424	780.328810	494.801104	1675.097108	747.231722	100.463212	1589.773893	438.341320	419.454634	1771.806359	468.876243	176.449627	1546.244860	387.183964	416.381836	1341.796875	129.179627	369.827688	1775.635123	393.975258	179.425657	1818.364859	70.929706	218.202025	1448.785782	45.063786	361.945093	1302.877307	147.637576	323.109835	1763.978720	59.137344	254.211187	1950.843096	57.480037	243.801236	
1522	6.088000	1649.388194	1227.780938	435.576648	1645.136356	1243.415833	157.997370	1561.782360	1299.372911	292.014539	1741.208196	852.668226	414.182782	1755.027771	850.738466	182.360798	1499.852896	896.551371	268.052518	1624.114513	780.135751	494.331330	1680.115700	748.387754	99.799931	1598.202586	438.607693	420.376033	1775.122881	469.134033	175.718620	1554.612637	387.599587	417.039663	1346.122980	133.323327	370.057702	1778.438807	394.244254	178.785950	1818.646669	70.824206	218.083903	1450.350881	45.214240	362.258315	1308.457613	152.813405	323.026538	1764.219880	59.275817	254.136771	1951.289773	56.874495	243.633702	
1523	6.092000	1653.869390	1228.577256	434.957951	1649.616838	1244.092226	157.450795	1566.174269	1300.051093	291.389883	1745.601177	853.257954	413.342237	1759.366155	851.513386	182.167277	1504.087448	896.783233	267.790884	1629.227400	779.927492	493.769437	1685.150623	749.691248	99.104002	1606.562972	439.186096	421.821982	1778.393030	469.433904	175.061181	1563.243866	388.027728	417.722225	1350.903630	137.458682	370.262086	1781.172633	394.522488	178.162053	1818.881631	70.682928	218.021944	1451.893806	45.182712	362.109214	1314.509630	157.974064	322.955966	1764.409423	59.366025	254.020393	1951.707840	56.322973	243.778214	
1524	6.096000	1658.312559	1229.399204	434.330761	1654.120803	1244.799137	156.904355	1570.559025	1300.709009	290.773094	1749.837875	853.824079	412.428200	1763.723612	852.246523	181.943759	1508.259058	897.047162	267.504990	1634.290457	779.709220	493.187189	1690.101147	751.137376	98.369181	1615.538716	439.294964	422.774851	1781.570673	469.750404	174.457669	1572.143316	388.415754	418.453276	1355.975866	141.566247	370.606184	1783.755898	394.735813	177.617639	1819.122553	70.548967	217.992708	1453.572750	45.049455	361.804247	1321.065068	163.070858	322.802007	1764.586926	59.447341	253.885657	1952.071905	55.832922	244.159535	
1525	6.100000	1662.727952	1230.242133	433.700800	1658.645988	1245.538712	156.391829	1574.931860	1301.353216	290.186316	1753.875971	854.251921	411.418676	1768.066049	852.963567	181.708187	1512.454271	897.313952	267.226070	1639.321804	779.419541	492.604017	1695.016861	752.707839	97.621329	1624.762893	439.221025	423.699081	1784.598589	470.112145	173.853517	1581.241369	388.737470	419.218421	1361.258864	145.593181	371.103197	1786.180496	394.947171	177.140296	1819.363356	70.433669	218.016207	1455.476284	44.861235	361.416996	1328.022957	168.055460	322.655946	1764.792919	59.556000	253.737986	1952.367306	55.443991	244.653061	
1526	6.104000	1667.137623	1231.095076	433.072686	1663.099527	1246.285677	155.874774	1579.287291	1301.985025	289.613128	1758.085847	854.824364	410.526067	1772.329926	853.623509	181.446567	1516.631007	897.614777	266.934097	1644.332886	779.098868	492.032140	1699.927807	754.376352	96.840620	1634.377241	438.791424	424.339056	1787.404537	470.493197	173.250616	1590.487599	388.985783	419.991136	1367.123365	149.368629	371.423781	1788.491845	395.169795	176.714301	1819.636226	70.353098	218.079835	1457.602978	44.623747	361.078113	1335.267067	172.863156	322.601229	1764.983177	59.674989	253.633738	1952.599645	55.112444	245.157719	
1527	6.108000	1671.497583	1231.931210	432.453752	1667.519093	1247.031212	155.380398	1583.591938	1302.589774	289.033115	1762.267232	855.410397	409.685910	1776.539564	854.275465	181.163236	1520.711422	897.962511	266.637444	1649.285078	778.777301	491.465092	1704.754114	756.082058	96.028909	1644.450665	437.962770	424.595326	1789.986730	470.867217	172.647446	1599.898338	389.135808	420.789987	1373.359919	152.984038	371.728301	1790.640235	395.345122	176.337212	1819.907188	70.335634	218.171194	1459.430337	43.878071	360.741556	1342.604995	177.564308	322.551548	1765.151381	59.779629	253.573656	1952.813864	54.800127	245.602667	
1528	6.112000	1675.816298	1232.757568	431.851149	1671.932101	1247.773170	154.882103	1587.853670	1303.177357	288.468540	1766.463280	856.024384	408.884376	1780.739903	854.936123	180.832177	1524.770975	898.358166	266.330957	1654.157639	778.393984	490.925580	1709.506631	757.760704	95.215626	1654.204011	437.521100	425.453842	1792.334437	471.176416	171.988189	1609.411836	389.216065	421.599656	1379.821777	156.488910	372.005552	1792.596936	395.444572	175.990954	1820.157409	70.368558	218.262538	1460.682869	42.530019	360.253841	1349.793792	182.207063	322.521806	1765.273571	59.846304	253.559858	1953.024387	54.477148	245.898664	
